<?xml version="1.0" encoding="UTF-8" standalone="no"?>
<!-- Created with Inkscape (http://www.inkscape.org/) -->

<svg
   xmlns:dc="http://purl.org/dc/elements/1.1/"
   xmlns:cc="http://creativecommons.org/ns#"
   xmlns:rdf="http://www.w3.org/1999/02/22-rdf-syntax-ns#"
   xmlns:svg="http://www.w3.org/2000/svg"
   xmlns="http://www.w3.org/2000/svg"
   xmlns:sodipodi="http://sodipodi.sourceforge.net/DTD/sodipodi-0.dtd"
   xmlns:inkscape="http://www.inkscape.org/namespaces/inkscape"
   version="1.1"
   id="svg2"
   width="190"
   height="190"
   viewBox="0 0 190 190"
   sodipodi:docname="icon.svg"
   inkscape:version="0.92.5 (2060ec1f9f, 2020-04-08)">
  <metadata
     id="metadata8">
    <rdf:RDF>
      <cc:Work
         rdf:about="">
        <dc:format>image/svg+xml</dc:format>
        <dc:type
           rdf:resource="http://purl.org/dc/dcmitype/StillImage" />
        <dc:title />
      </cc:Work>
    </rdf:RDF>
  </metadata>
  <defs
     id="defs6">
    <filter
       inkscape:label="Bark"
       inkscape:menu="Textures"
       inkscape:menu-tooltip="Bark texture, vertical; use with deep colors"
       style="color-interpolation-filters:sRGB"
       id="filter36">
      <feTurbulence
         seed="10"
         baseFrequency="0.12 0.02"
         numOctaves="10"
         type="fractalNoise"
         id="feTurbulence14" />
      <feColorMatrix
         values="1 0 0 0 0 0 1 0 0 0 0 0 1 0 0 0 0 0 0.7 0 "
         result="result5"
         id="feColorMatrix16" />
      <feComposite
         in2="result5"
         operator="out"
         in="SourceGraphic"
         id="feComposite18" />
      <feMorphology
         result="result3"
         radius="1.3"
         operator="dilate"
         id="feMorphology20" />
      <feTurbulence
         seed="25"
         type="turbulence"
         baseFrequency="0.08 0.05"
         numOctaves="8"
         result="result91"
         id="feTurbulence22" />
      <feDisplacementMap
         result="result4"
         scale="5"
         yChannelSelector="G"
         xChannelSelector="R"
         in="result3"
         in2="result91"
         id="feDisplacementMap24" />
      <feSpecularLighting
         specularExponent="35"
         specularConstant="1"
         surfaceScale="2"
         lighting-color="#ffffff"
         result="result1"
         in="result4"
         id="feSpecularLighting28">
        <feDistantLight
           azimuth="235"
           elevation="75"
           id="feDistantLight26" />
      </feSpecularLighting>
      <feComposite
         operator="in"
         result="result2"
         in="result1"
         in2="result4"
         id="feComposite30" />
      <feComposite
         k4="0"
         k1="0"
         k3="1"
         k2="1"
         operator="arithmetic"
         result="result4"
         in="result4"
         in2="result2"
         id="feComposite32" />
      <feBlend
         mode="multiply"
         in2="result4"
         id="feBlend34" />
    </filter>
  </defs>
  <sodipodi:namedview
     pagecolor="#ffffff"
     bordercolor="#666666"
     borderopacity="1"
     objecttolerance="10"
     gridtolerance="10"
     guidetolerance="10"
     inkscape:pageopacity="0"
     inkscape:pageshadow="2"
     inkscape:window-width="1848"
     inkscape:window-height="1016"
     id="namedview4"
     showgrid="false"
     inkscape:zoom="3.6016662"
     inkscape:cx="98.969955"
     inkscape:cy="80.745097"
     inkscape:window-x="72"
     inkscape:window-y="27"
     inkscape:window-maximized="1"
     inkscape:current-layer="svg2" />
  <g
     id="g839"
     transform="matrix(0.33139536,0,0,0.25622411,0,0.00231509)"
     style="fill:#c0844f;fill-opacity:1">
    <path
       style="fill:#c0844f;stroke-width:1.33333325;fill-opacity:1"
       d="M 0,370.66665 V 0 H 286.66665 573.33331 V 370.66665 741.33331 H 286.66665 0 Z"
       id="path843"
       inkscape:connector-curvature="0" />
  </g>
  <path
     style="fill:#502d16;stroke-width:0.58895701;filter:url(#filter36)"
     d="m 95.548893,152.10594 c -2.67765,-1.50674 -5.72824,-4.28549 -6.27955,-5.71998 -0.85906,-2.23527 -1.99416,-9.05723 -3.49743,-21.01972 -1.41941,-11.2951 -1.76209,-29.304969 -1.11872,-58.796719 l 0.29448,-13.49885 -1.76687,-0.4824 c -2.88826,-0.78857 -13.22721,-1.61843 -28.26994,-2.26911 -7.77423,-0.33627 -15.46012,-0.86644 -17.07975,-1.17814 -3.5003,-0.67364 -4.82788,-2.03992 -8.2454,-8.4858 -2.24414,-4.23273 -2.31353,-4.5195 -1.46354,-6.04893 0.49076,-0.88305 1.52876,-1.7558 2.30668,-1.93944 1.77134,-0.41816 18.46073,0.92309 21.24275,1.70718 1.13374,0.31954 7.62699,0.71493 14.42944,0.87866 16.88494,0.40641 36.595697,1.94274 39.080877,3.04613 1.36935,0.60796 2.19927,0.69277 2.70141,0.27603 0.49418,-0.41013 3.76081,-0.38053 10.26628,0.093 7.36861,0.53639 10.31575,0.53464 12.94142,-0.008 1.86996,-0.38623 3.99086,-0.70224 4.71309,-0.70224 2.07137,0 5.78234,2.16356 8.95322,5.21988 3.45888,3.33393 3.80725,5.40761 1.39088,8.27931 -3.29711,3.91839 -12.2156,4.6957 -34.86709,3.03889 -5.92398,-0.4333 -10.87234,-0.68632 -10.99638,-0.56228 -0.12405,0.12404 -0.676787,10.381 -1.228337,22.79325 -1.12361,25.286579 -0.98157,28.497599 2.110047,47.701549 2.32746,14.4572 2.86706,23.8687 1.51808,26.47735 -0.87409,1.6903 -1.2549,1.89672 -3.469787,1.88077 -1.36837,-0.01 -3.018,-0.31617 -3.66586,-0.68073 z"
     id="path12"
     inkscape:connector-curvature="0" />
</svg>
