<?xml version="1.0" encoding="UTF-8" standalone="no"?>
<!-- Created with Inkscape (http://www.inkscape.org/) -->

<svg
   xmlns:dc="http://purl.org/dc/elements/1.1/"
   xmlns:cc="http://creativecommons.org/ns#"
   xmlns:rdf="http://www.w3.org/1999/02/22-rdf-syntax-ns#"
   xmlns:svg="http://www.w3.org/2000/svg"
   xmlns="http://www.w3.org/2000/svg"
   xmlns:sodipodi="http://sodipodi.sourceforge.net/DTD/sodipodi-0.dtd"
   xmlns:inkscape="http://www.inkscape.org/namespaces/inkscape"
   version="1.1"
   id="svg2"
   width="167.26379"
   height="150.77301"
   viewBox="0 0 167.26379 150.77301"
   sodipodi:docname="icon.svg"
   inkscape:version="0.92.5 (2060ec1f9f, 2020-04-08)">
  <metadata
     id="metadata8">
    <rdf:RDF>
      <cc:Work
         rdf:about="">
        <dc:format>image/svg+xml</dc:format>
        <dc:type
           rdf:resource="http://purl.org/dc/dcmitype/StillImage" />
        <dc:title></dc:title>
      </cc:Work>
    </rdf:RDF>
  </metadata>
  <defs
     id="defs6">
    <filter
       inkscape:label="Bark"
       inkscape:menu="Textures"
       inkscape:menu-tooltip="Bark texture, vertical; use with deep colors"
       style="color-interpolation-filters:sRGB;"
       id="filter36">
      <feTurbulence
         seed="10"
         baseFrequency="0.12 0.02"
         numOctaves="10"
         type="fractalNoise"
         id="feTurbulence14" />
      <feColorMatrix
         values="1 0 0 0 0 0 1 0 0 0 0 0 1 0 0 0 0 0 0.7 0 "
         result="result5"
         id="feColorMatrix16" />
      <feComposite
         in2="result5"
         operator="out"
         in="SourceGraphic"
         id="feComposite18" />
      <feMorphology
         result="result3"
         radius="1.3"
         operator="dilate"
         id="feMorphology20" />
      <feTurbulence
         seed="25"
         type="turbulence"
         baseFrequency="0.08 0.05"
         numOctaves="8"
         result="result91"
         id="feTurbulence22" />
      <feDisplacementMap
         result="result4"
         scale="5"
         yChannelSelector="G"
         xChannelSelector="R"
         in="result3"
         in2="result91"
         id="feDisplacementMap24" />
      <feSpecularLighting
         specularExponent="35"
         specularConstant="1"
         surfaceScale="2"
         lighting-color="rgb(255,255,255)"
         result="result1"
         in="result4"
         id="feSpecularLighting28">
        <feDistantLight
           azimuth="235"
           elevation="75"
           id="feDistantLight26" />
      </feSpecularLighting>
      <feComposite
         operator="in"
         result="result2"
         in="result1"
         in2="result4"
         id="feComposite30" />
      <feComposite
         k3="1"
         k2="1"
         operator="arithmetic"
         result="result4"
         in="result4"
         in2="result2"
         id="feComposite32" />
      <feBlend
         mode="multiply"
         in2="result4"
         id="feBlend34" />
    </filter>
  </defs>
  <sodipodi:namedview
     pagecolor="#ffffff"
     bordercolor="#666666"
     borderopacity="1"
     objecttolerance="10"
     gridtolerance="10"
     guidetolerance="10"
     inkscape:pageopacity="0"
     inkscape:pageshadow="2"
     inkscape:window-width="1920"
     inkscape:window-height="1043"
     id="namedview4"
     showgrid="false"
     inkscape:zoom="1.5652669"
     inkscape:cx="83.631897"
     inkscape:cy="75.386505"
     inkscape:window-x="1920"
     inkscape:window-y="0"
     inkscape:window-maximized="1"
     inkscape:current-layer="svg2" />
  <path
     style="fill:#502d16;stroke-width:0.58895701;filter:url(#filter36)"
     d="m 89.107198,135.29055 c -2.67765,-1.50674 -5.72824,-4.28549 -6.27955,-5.71998 -0.85906,-2.23527 -1.99416,-9.05723 -3.49743,-21.01972 -1.41941,-11.295103 -1.76209,-29.304965 -1.11872,-58.796716 l 0.29448,-13.498857 -1.76687,-0.482401 c -2.88826,-0.788567 -13.22721,-1.61843 -28.26994,-2.269105 -7.77423,-0.336275 -15.46012,-0.866439 -17.07975,-1.178141 -3.5003,-0.673642 -4.82788,-2.039922 -8.2454,-8.4858 -2.24414,-4.232725 -2.31353,-4.519504 -1.46354,-6.048932 0.49076,-0.88305 1.52876,-1.755798 2.30668,-1.939439 1.77134,-0.418156 18.46073,0.923094 21.24275,1.707182 1.13374,0.319536 7.62699,0.714934 14.42944,0.878662 16.88494,0.406403 36.5957,1.942741 39.08088,3.046124 1.369342,0.607968 2.199262,0.692771 2.701402,0.276037 0.49418,-0.410136 3.76081,-0.380537 10.26629,0.09302 7.36861,0.53639 10.31575,0.534641 12.94142,-0.0077 1.86996,-0.386237 3.99086,-0.702247 4.71309,-0.702247 2.07137,0 5.78234,2.163567 8.95322,5.219887 3.45888,3.333924 3.80725,5.407605 1.39088,8.279305 -3.29711,3.918394 -12.2156,4.695697 -34.8671,3.038893 -5.923972,-0.433298 -10.872332,-0.686325 -10.996372,-0.562283 -0.12405,0.124042 -0.67679,10.381005 -1.22834,22.793251 -1.12361,25.286583 -0.98157,28.497601 2.11005,47.70155 2.32746,14.4572 2.86706,23.8687 1.51808,26.47735 -0.87409,1.6903 -1.2549,1.89672 -3.46979,1.88077 -1.36837,-0.01 -3.018,-0.31617 -3.66586,-0.68073 z"
     id="path12"
     inkscape:connector-curvature="0" />
</svg>
