<?xml version="1.0" encoding="UTF-8" standalone="no"?>
<!-- Created with Inkscape (http://www.inkscape.org/) -->

<svg
   xmlns:dc="http://purl.org/dc/elements/1.1/"
   xmlns:cc="http://creativecommons.org/ns#"
   xmlns:rdf="http://www.w3.org/1999/02/22-rdf-syntax-ns#"
   xmlns:svg="http://www.w3.org/2000/svg"
   xmlns="http://www.w3.org/2000/svg"
   xmlns:sodipodi="http://sodipodi.sourceforge.net/DTD/sodipodi-0.dtd"
   xmlns:inkscape="http://www.inkscape.org/namespaces/inkscape"
   version="1.1"
   id="svg68"
   width="198mm"
   height="48mm"
   viewBox="0 0 748.34639 181.41732"
   sodipodi:docname="logo.svg"
   inkscape:version="0.92.5 (2060ec1f9f, 2020-04-08)">
  <metadata
     id="metadata74">
    <rdf:RDF>
      <cc:Work
         rdf:about="">
        <dc:format>image/svg+xml</dc:format>
        <dc:type
           rdf:resource="http://purl.org/dc/dcmitype/StillImage" />
        <dc:title></dc:title>
      </cc:Work>
    </rdf:RDF>
  </metadata>
  <defs
     id="defs72">
    <filter
       inkscape:label="Bark"
       inkscape:menu="Textures"
       inkscape:menu-tooltip="Bark texture, vertical; use with deep colors"
       style="color-interpolation-filters:sRGB"
       id="filter102">
      <feTurbulence
         seed="10"
         baseFrequency="0.12 0.02"
         numOctaves="10"
         type="fractalNoise"
         id="feTurbulence80" />
      <feColorMatrix
         values="1 0 0 0 0 0 1 0 0 0 0 0 1 0 0 0 0 0 0.7 0 "
         result="result5"
         id="feColorMatrix82" />
      <feComposite
         in2="result5"
         operator="out"
         in="SourceGraphic"
         id="feComposite84" />
      <feMorphology
         result="result3"
         radius="1.3"
         operator="dilate"
         id="feMorphology86" />
      <feTurbulence
         seed="25"
         type="turbulence"
         baseFrequency="0.08 0.05"
         numOctaves="8"
         result="result91"
         id="feTurbulence88" />
      <feDisplacementMap
         result="result4"
         scale="5"
         yChannelSelector="G"
         xChannelSelector="R"
         in="result3"
         in2="result91"
         id="feDisplacementMap90" />
      <feSpecularLighting
         specularExponent="35"
         specularConstant="1"
         surfaceScale="2"
         lighting-color="#ffffff"
         result="result1"
         in="result4"
         id="feSpecularLighting94">
        <feDistantLight
           azimuth="235"
           elevation="75"
           id="feDistantLight92" />
      </feSpecularLighting>
      <feComposite
         operator="in"
         result="result2"
         in="result1"
         in2="result4"
         id="feComposite96" />
      <feComposite
         k3="1"
         k2="1"
         operator="arithmetic"
         result="result4"
         in="result4"
         in2="result2"
         id="feComposite98"
         k1="0"
         k4="0" />
      <feBlend
         mode="multiply"
         in2="result4"
         id="feBlend100" />
    </filter>
  </defs>
  <sodipodi:namedview
     pagecolor="#ffffff"
     bordercolor="#666666"
     borderopacity="1"
     objecttolerance="10"
     gridtolerance="10"
     guidetolerance="10"
     inkscape:pageopacity="0"
     inkscape:pageshadow="2"
     inkscape:window-width="1848"
     inkscape:window-height="1016"
     id="namedview70"
     showgrid="false"
     inkscape:zoom="1.3907559"
     inkscape:cx="238.2483"
     inkscape:cy="-55.334523"
     inkscape:window-x="72"
     inkscape:window-y="27"
     inkscape:window-maximized="1"
     inkscape:current-layer="svg68"
     units="mm" />
  <path
     style="fill:#502d16;stroke-width:0.58895707;filter:url(#filter102)"
     d="m 152.23465,164.04895 c -12.4434,-2.2519 -24.81605,-9.22837 -30.81255,-17.37404 -4.12911,-5.609 -5.25806,-9.14625 -5.25118,-16.45327 0.005,-5.52544 0.21289,-6.74857 1.95017,-11.48467 3.81166,-10.39114 9.19719,-19.279287 15.45305,-25.503424 7.46662,-7.42873 16.94216,-10.13033 35.51917,-10.12699 8.65816,0.002 12.68726,0.75053 22.79381,4.23719 3.90559,1.34739 3.97496,1.41013 10.43018,9.43263 7.14719,8.882474 10.37196,14.798034 13.34608,24.482184 1.58558,5.16287 1.64019,5.69146 0.98358,9.52051 -1.23252,7.18751 -2.83833,10.51041 -7.14079,14.77645 -4.46815,4.43033 -8.54345,7.2272 -16.83913,11.55664 -9.25978,4.83259 -15.90167,6.86167 -22.81587,6.9702 -3.15487,0.0495 -5.91561,0.26953 -6.13498,0.48889 -0.63531,0.63532 -6.57885,0.36494 -11.48154,-0.5223 z m 17.16858,-14.94149 c 4.72532,-0.94432 7.57331,-1.94248 12.07362,-4.23154 10.64238,-5.4132 16.34357,-10.4317 19.3241,-17.01011 1.74282,-3.84666 1.67857,-11.44588 -0.13603,-16.08856 -1.63481,-4.1827 -6.9516,-10.08653 -11.13317,-12.362427 -6.17426,-3.360447 -18.82046,-4.381057 -25.70597,-2.074587 -2.12131,0.71059 -2.38598,1.02906 -2.85339,3.433544 -0.55621,2.86122 -1.827,4.71166 -3.23574,4.71166 -0.48554,0 -2.58416,-0.95145 -4.6636,-2.11435 -2.84888,-1.59318 -4.16938,-2.01889 -5.35722,-1.72707 -3.97651,0.97689 -11.09158,11.63203 -15.15014,22.68805 -1.83692,5.00398 -2.20279,11.09337 -0.89814,14.94815 1.72048,5.08333 7.31845,9.1607 14.70362,10.70957 5.15853,1.08189 15.1111,0.70062 23.03206,-0.88233 z m 222.33129,15.46238 c -3.09,-0.69158 -9.1575,-2.8718 -12.07362,-4.3384 -5.92594,-2.98032 -7.85299,-4.74958 -8.96682,-8.23261 -0.55603,-1.73876 -0.90337,-3.26896 -0.77188,-3.40045 0.13149,-0.13149 2.96164,0.35324 6.28922,1.07718 4.91603,1.06951 7.15883,1.25486 11.96454,0.9888 13.83561,-0.76601 30.70217,-7.43642 38.46919,-15.21385 5.90513,-5.91305 7.49349,-11.8348 7.07816,-26.38897 -0.32355,-11.337664 -1.71297,-14.635844 -7.24032,-17.186874 -6.92995,-3.19838 -13.19235,0.28725 -21.76304,12.113284 -5.41995,7.47854 -5.07427,6.76658 -9.19895,18.9465 -6.01494,17.76174 -7.64912,20.18399 -12.83156,19.01958 -3.40008,-0.76395 -6.69854,-3.06572 -8.17664,-5.70592 -1.32408,-2.36509 -1.96553,-7.56403 -3.10519,-25.16758 -1.55181,-23.969484 -1.13871,-86.511694 0.61074,-92.466264 1.06241,-3.61609 2.20212,-4.59102 4.938,-4.22407 2.78385,0.3734 4.94909,1.89144 6.53277,4.58012 1.14453,1.9431 1.17245,2.8761 0.98483,32.92003 -0.15887,25.44138 -0.0274,32.32138 0.74176,38.82765 0.51416,4.34906 1.03796,8.010507 1.16399,8.136547 0.12604,0.12603 2.82221,-3.026317 5.9915,-7.005217 6.88171,-8.63971 8.93106,-10.61595 13.20381,-12.73281 2.84014,-1.4071 3.85827,-1.59209 8.26305,-1.50137 16.74243,0.34484 27.93724,8.82557 32.21243,24.402824 0.79217,2.88636 1.02035,5.88667 0.9804,12.89078 -0.0465,8.14252 -0.22436,9.69917 -1.64661,14.40752 -4.68713,15.51673 -14.9068,25.96645 -30.62857,31.31806 -4.33264,1.47482 -18.31187,4.38173 -20.52197,4.26746 -0.72672,-0.0376 -1.85137,-0.18696 -2.49922,-0.33195 z m 114.25767,0.006 c -12.40712,-1.84125 -24.61547,-7.78913 -31.55979,-15.37586 -6.90234,-7.54087 -9.17802,-17.01647 -6.46952,-26.93816 2.69325,-9.86584 9.63341,-22.18046 16.20229,-28.749344 7.70464,-7.70463 17.09464,-10.42073 35.94654,-10.3977 8.7367,0.0107 11.37746,0.47839 21.51238,3.81015 l 5.00614,1.64572 5.98951,7.42653 c 7.63623,9.468344 10.00657,13.573044 13.12414,22.727014 l 2.52192,7.40495 -0.67435,4.54913 c -0.8262,5.57351 -3.25371,10.93688 -6.58667,14.55273 -5.03778,5.46534 -19.03027,13.5512 -29.68744,17.15553 -3.50204,1.18442 -6.22368,1.65418 -10.60122,1.8298 -3.23927,0.12996 -7.47976,0.32301 -9.42332,0.42901 -1.94356,0.10598 -4.32883,0.0747 -5.30061,-0.0695 z m 9.05325,-14.65881 c 9.3795,-1.37513 12.63112,-2.37938 19.11662,-5.90413 9.92411,-5.39356 14.334,-9.42951 17.17618,-15.71972 2.59997,-5.75417 2.47838,-11.77917 -0.35953,-17.81657 -1.76603,-3.75706 -6.82315,-9.09986 -10.51543,-11.109447 -5.38774,-2.932387 -16.93981,-4.206147 -23.57538,-2.599507 -3.95169,0.95681 -4.53614,1.40766 -4.98117,3.842544 -0.51149,2.79849 -1.82407,4.87486 -3.08166,4.87486 -0.5325,0 -2.68053,-0.94123 -4.77339,-2.09161 -4.71969,-2.59426 -6.1453,-2.38899 -9.66778,1.39203 -6.10965,6.5581 -12.83343,21.43625 -12.83343,28.39743 0,4.41652 1.68927,8.33919 4.96818,11.53669 5.6901,5.54882 14.80405,7.20934 28.52679,5.19745 z m 200.70687,14.22543 c -4.97693,-1.84447 -6.84033,-5.5608 -8.34482,-16.64279 -0.91312,-6.72611 -1.86199,-11.38882 -2.31766,-11.38882 -0.12039,0 -2.69425,2.4649 -5.71966,5.47755 -12.80404,12.75018 -27.15033,17.55845 -41.67807,13.96877 -2.93925,-0.72626 -5.34408,-1.54753 -5.34408,-1.82503 0,-0.27751 -0.41386,-0.34576 -0.91966,-0.15166 -0.5717,0.21938 -3.36789,-1.29163 -7.39088,-3.99395 l -6.47122,-4.34685 -3.5672,-6.34647 c -5.44414,-9.68588 -5.99317,-11.41607 -5.92891,-18.6842 0.092,-10.40211 3.17501,-19.43518 9.47261,-27.754154 5.92638,-7.82852 12.65957,-12.52037 21.04585,-14.66523 5.83809,-1.49312 9.79011,-1.47169 14.13343,0.0767 1.92695,0.68692 5.35009,1.31984 7.67376,1.41885 3.24633,0.13832 5.0092,0.58267 7.79491,1.96479 4.27253,2.11984 8.52921,4.91921 11.00171,7.23523 1.09717,1.02776 2.84125,1.87249 4.50947,2.18415 6.95341,1.29903 8.79319,4.10381 10.52749,16.049124 0.67754,4.66645 2.55702,13.65255 4.17665,19.96911 6.27981,24.49082 6.98874,27.5064 7.3387,31.21473 0.30643,3.24697 0.18864,4.04095 -0.77601,5.22928 -1.42404,1.75432 -5.88904,2.24408 -9.21641,1.01094 z m -46.60912,-18.61085 c 7.59854,-1.94338 16.08754,-7.43039 22.93069,-14.82163 6.28682,-6.79034 8.3573,-12.50465 7.37256,-20.3474 -0.7945,-6.32728 -1.11813,-7.18158 -3.11116,-8.21219 -0.99734,-0.51575 -3.81533,-2.934967 -6.26227,-5.376034 -5.12445,-5.11223 -8.11618,-6.66367 -13.60761,-7.05657 -9.31147,-0.66624 -18.97596,2.94762 -25.60155,9.573187 -9.55306,9.553067 -11.80535,25.166417 -5.55888,38.535157 2.0448,4.3762 4.15468,6.89336 6.74857,8.05116 2.73759,1.22195 11.66641,1.04135 17.08965,-0.34568 z m -420.37391,15.36927 c -3.43742,-3.01809 -4.3314,-6.36935 -7.16294,-26.85141 -3.37141,-24.38734 -5.41931,-46.231884 -4.49593,-47.957234 0.96913,-1.81085 2.71555,-2.0313 4.6663,-0.58905 1.1937,0.88254 2.19467,1.17269 3.18665,0.92372 1.20468,-0.30235 1.68652,0.005 2.88438,1.83837 2.15433,3.29774 3.24792,6.45126 5.49667,15.850474 2.49349,10.42212 2.89219,11.29101 3.72457,8.11708 4.83729,-18.445004 5.70883,-20.525494 10.77294,-25.716484 l 3.32213,-3.40535 2.17719,0.90968 c 1.50935,0.63065 2.39954,0.72515 2.90206,0.3081 0.50589,-0.41985 1.11748,-0.3266 2.02445,0.30867 0.85296,0.59744 1.8923,0.78008 3.02428,0.53145 4.18652,-0.91951 8.11645,2.9628 11.23884,11.10268 3.28816,8.572004 5.3658,13.336184 5.81587,13.336184 0.24252,0 1.18509,-1.92148 2.0946,-4.26994 3.38074,-8.729484 6.69423,-14.166484 9.7244,-15.956444 1.70402,-1.00659 1.8589,-0.9857 7.78866,1.05072 5.16809,1.77485 6.40001,2.45723 8.45062,4.68089 4.65545,5.048314 8.17639,13.276464 15.27536,35.697224 2.5128,7.9362 5.34597,15.8181 6.29593,17.51534 2.19089,3.91432 2.02709,5.8468 -0.6479,7.64355 -2.8577,1.91947 -4.41688,1.68616 -8.20304,-1.22747 -7.2343,-5.56712 -7.46037,-5.96385 -14.47534,-25.40379 -6.80994,-18.87176 -7.09135,-19.57056 -7.56097,-18.77502 -0.16797,0.28454 -1.55576,5.81797 -3.08398,12.29649 -4.90318,20.78597 -6.68527,26.07186 -9.25323,27.44618 -1.61191,0.86267 -5.51809,0.21266 -8.42837,-1.40252 -3.34625,-1.85713 -5.16255,-5.90147 -7.72182,-17.1941 -2.31722,-10.22461 -5.74511,-20.8169 -8.50812,-26.29039 -0.96261,-1.90693 -1.87352,-3.46714 -2.02424,-3.46714 -0.47373,0 -2.68658,4.67923 -4.84595,10.24708 -1.27824,3.29589 -2.28455,7.17487 -2.61292,10.07194 -0.66528,5.86943 -6.06269,31.17782 -7.43271,34.8519 -1.43141,3.83871 -3.39086,5.10996 -8.30417,5.38758 -3.80132,0.2148 -4.12403,0.12974 -6.10427,-1.60893 z m 356.41278,-3.99677 c -7.50448,-6.77982 -14.42711,-30.90792 -21.74032,-75.773494 -3.63469,-22.29835 -6.46888,-46.98412 -6.47727,-56.41689 -0.003,-3.60993 0.37967,-4.03847 3.60821,-4.03847 2.32029,0 4.45663,1.18201 7.13139,3.9457 2.18624,2.25892 2.21836,2.36374 4.30167,14.03628 3.12569,17.51284 6.34246,34.74963 10.65801,57.11005 3.18244,16.489374 4.53396,22.104054 7.65554,31.803684 6.0673,18.85276 6.69678,21.90175 5.58901,27.06988 -0.47087,2.19663 -3.67633,4.43932 -6.34507,4.43932 -1.44691,0 -2.6144,-0.57987 -4.38117,-2.17604 z m -514.404588,0.88883 c -2.67765,-1.50674 -5.72824,-4.28549 -6.27954,-5.71998 -0.85907,-2.23527 -1.99417,-9.05723 -3.49744,-21.01973 -1.41942,-11.2951 -1.76209,-29.30496 -1.11872,-58.796714 l 0.29448,-13.49886 -1.76687,-0.4824 c -2.88826,-0.78856 -13.22721,-1.61843 -28.269944,-2.2691 -7.774233,-0.33628 -15.460122,-0.86644 -17.079754,-1.17814 -3.5003,-0.67364 -4.827873,-2.03992 -8.245399,-8.4858 -2.244139,-4.23273 -2.313525,-4.51951 -1.46354,-6.04893 0.490758,-0.88306 1.528766,-1.7558 2.306683,-1.93944 1.771336,-0.41816 18.460727,0.92309 21.242747,1.70718 1.133742,0.31953 7.626997,0.71493 14.429447,0.87866 16.88494,0.4064 36.5957,1.94274 39.080878,3.04612 1.36934,0.60797 2.19926,0.69278 2.7014,0.27604 0.49418,-0.41013 3.76082,-0.38054 10.26629,0.093 7.36861,0.53639 10.31576,0.53465 12.94143,-0.008 1.86996,-0.38623 3.99085,-0.70224 4.71309,-0.70224 2.07136,0 5.78233,2.16356 8.9532,5.21988 3.45889,3.33393 3.80726,5.40761 1.39088,8.27931 -3.29711,3.91839 -12.21558,4.6957 -34.86709,3.03889 -5.92397,-0.4333 -10.872328,-0.68632 -10.996368,-0.56228 -0.12405,0.12404 -0.67679,10.381 -1.22833,22.79325 -1.12362,25.286584 -0.98158,28.497604 2.11005,47.701554 2.32745,14.45719 2.86705,23.8687 1.51807,26.47735 -0.87409,1.6903 -1.2549,1.89671 -3.46979,1.88077 -1.36837,-0.01 -3.018,-0.31618 -3.66586,-0.68073 z"
     id="path78"
     inkscape:connector-curvature="0" />
</svg>
